<svg width="25" height="22" viewBox="0 0 25 22" fill="none" xmlns="http://www.w3.org/2000/svg">
<path d="M12.5 21.9902C11.6938 21.2915 10.7825 20.5646 9.81876 19.7913H9.80626C6.41251 17.0794 2.56627 14.0107 0.867527 10.3337C0.309425 9.16306 0.0136585 7.88942 1.42574e-05 6.59803C-0.00371298 4.82608 0.72349 3.12744 2.01728 1.88602C3.31108 0.644607 5.06225 -0.0347927 6.87501 0.00137342C8.35079 0.00365147 9.7948 0.420482 11.035 1.20221C11.58 1.54789 12.073 1.96602 12.5 2.44458C12.9294 1.9679 13.4226 1.55001 13.9662 1.20221C15.2059 0.420328 16.6496 0.00347281 18.125 0.00137342C19.9378 -0.0347927 21.6889 0.644607 22.9827 1.88602C24.2765 3.12744 25.0037 4.82608 25 6.59803C24.9872 7.89148 24.6914 9.1673 24.1325 10.3398C22.4337 14.0168 18.5887 17.0843 15.195 19.7913L15.1825 19.8011C14.2175 20.5695 13.3075 21.2964 12.5013 22L12.5 21.9902ZM6.87501 2.44458C5.71065 2.43034 4.58761 2.86584 3.75002 3.65641C2.943 4.43111 2.49197 5.49254 2.49992 6.59803C2.51418 7.53928 2.73231 8.4669 3.14002 9.31976C3.94191 10.9063 5.0239 12.3421 6.33626 13.5612C7.57501 14.7828 9.00001 15.9653 10.2325 16.9597C10.5738 17.2345 10.9213 17.5118 11.2688 17.7891L11.4875 17.9638C11.8213 18.2301 12.1663 18.5062 12.5 18.7774L12.5162 18.7628L12.5238 18.7566H12.5312L12.5425 18.7481H12.5487H12.555L12.5775 18.7298L12.6287 18.6895L12.6375 18.6821L12.6512 18.6724H12.6587L12.67 18.6626L13.5 17.9968L13.7175 17.8221C14.0687 17.5424 14.4162 17.2651 14.7575 16.9902C15.99 15.9958 17.4162 14.8145 18.655 13.5868C19.9675 12.3683 21.0496 10.9329 21.8512 9.34664C22.2663 8.48639 22.4876 7.54905 22.5 6.59803C22.5052 5.49595 22.0544 4.43859 21.25 3.66618C20.414 2.87204 19.2908 2.43295 18.125 2.44458C16.7024 2.43276 15.3424 3.01552 14.3875 4.0461L12.5 6.17169L10.6125 4.0461C9.65759 3.01552 8.29761 2.43276 6.87501 2.44458Z" fill="#323232"/>
</svg>
