<svg width="35" height="32" viewBox="0 0 35 32" fill="none" xmlns="http://www.w3.org/2000/svg">
<path d="M16.9069 29.0436C16.9069 30.6763 15.6055 32 14.0002 32C12.3949 32 11.0935 30.6763 11.0935 29.0436C11.0935 27.4108 12.3949 26.0872 14.0002 26.0872C15.6055 26.0872 16.9069 27.4108 16.9069 29.0436ZM25.7695 26.0872C24.1642 26.0872 22.8628 27.4108 22.8628 29.0436C22.8628 30.6764 24.1642 32 25.7695 32C27.3748 32 28.6761 30.6764 28.6761 29.0436C28.6761 27.4108 27.3748 26.0872 25.7695 26.0872ZM34.792 12.2086L31.2154 23.0209C31.2154 23.0209 30.9193 24.6255 29.4109 24.6255C27.9024 24.6255 13.1509 24.6255 11.3507 24.6255C9.55052 24.6255 9.47486 22.6142 9.47486 22.6142C9.47486 22.6142 7.55584 8.13335 7.46074 7.25851C7.36564 6.38367 6.26567 5.73525 6.26567 5.73525L1.53288 3.48663C-1.05826 2.10844 0.119524 -0.513861 1.53288 0.0884154C7.53422 2.96788 10.322 4.38564 10.5014 5.51984C10.6829 6.65623 10.9984 9.39284 10.9984 9.39284V9.41042C11.0352 9.39943 11.0611 9.39284 11.0611 9.39284C11.0611 9.39284 29.4649 9.39284 33.182 9.39284C35.8531 9.39284 34.792 12.213 34.792 12.2086ZM31.3235 12.3602H11.3485L12.1739 21.3333C16.0055 21.3333 25.2781 21.3333 28.913 21.3333L31.3235 12.3602Z" fill="#323232"/>
</svg>
