<svg width="30" height="27" viewBox="0 0 30 27" fill="none" xmlns="http://www.w3.org/2000/svg">
<path d="M15 26.988C14.0325 26.1304 12.939 25.2384 11.7825 24.2894H11.7675C7.69502 20.9611 3.07953 17.195 1.04103 12.6823C0.37131 11.2456 0.0163902 9.68247 1.71089e-05 8.09758C-0.00445557 5.92291 0.868188 3.83822 2.42074 2.31466C3.97329 0.791109 6.0747 -0.0427002 8.25002 0.00168556C10.021 0.00448135 11.7538 0.516047 13.242 1.47544C13.896 1.89968 14.4876 2.41285 15 3.00017C15.5152 2.41515 16.1071 1.90228 16.7595 1.47544C18.2471 0.515857 19.9795 0.00426208 21.75 0.00168556C23.9253 -0.0427002 26.0267 0.791109 27.5793 2.31466C29.1318 3.83822 30.0045 5.92291 30 8.09758C29.9847 9.685 29.6297 11.2508 28.959 12.6898C26.9205 17.2025 22.3065 20.9671 18.234 24.2894L18.219 24.3014C17.061 25.2444 15.969 26.1364 15.0015 27L15 26.988ZM8.25002 3.00017C6.85278 2.98269 5.50513 3.51717 4.50002 4.48741C3.5316 5.43818 2.99036 6.74084 2.9999 8.09758C3.01702 9.25275 3.27877 10.3912 3.76803 11.4379C4.73029 13.385 6.02868 15.1471 7.60352 16.6433C9.09001 18.1425 10.8 19.5938 12.279 20.8141C12.6885 21.1515 13.1055 21.4918 13.5225 21.8321L13.785 22.0465C14.1855 22.3733 14.5995 22.7122 15 23.045L15.0195 23.027L15.0285 23.0195H15.0375L15.051 23.009H15.0585H15.066L15.093 22.9865L15.1545 22.9371L15.165 22.9281L15.1815 22.9161H15.1905L15.204 22.9041L16.2 22.087L16.461 21.8726C16.8825 21.5293 17.2995 21.1889 17.709 20.8516C19.188 19.6312 20.8995 18.1815 22.386 16.6747C23.961 15.1793 25.2595 13.4177 26.2215 11.4709C26.7196 10.4151 26.9851 9.26475 27 8.09758C27.0062 6.74503 26.4653 5.44736 25.5 4.49941C24.4968 3.52478 23.1489 2.9859 21.75 3.00017C20.0429 2.98567 18.4109 3.70086 17.265 4.96567L15 7.57435L12.735 4.96567C11.5891 3.70086 9.95713 2.98567 8.25002 3.00017Z" fill="#323232"/>
</svg>
