<svg width="27" height="27" viewBox="0 0 27 27" fill="none" xmlns="http://www.w3.org/2000/svg">
<path d="M24.5 27L17.1196 19.6758C12.5269 22.941 6.19825 22.1423 2.56073 17.8385C-1.07679 13.5346 -0.809698 7.16139 3.17517 3.17698C7.15899 -0.809177 13.5328 -1.07743 17.8375 2.5599C22.1421 6.19723 22.9413 12.5265 19.6758 17.1196L27 24.5L24.5 27ZM10.8384 3.61413C7.4127 3.61336 4.45723 6.01803 3.76133 9.37228C3.06544 12.7265 4.82038 16.1084 7.96364 17.4705C11.1069 18.8325 14.7746 17.8003 16.7461 14.9989C18.7176 12.1974 18.4511 8.39655 16.108 5.89758L17.2009 6.98148L15.9689 5.75306L15.9472 5.73138C14.5955 4.3714 12.7558 3.60896 10.8384 3.61413Z" fill="#30B856"/>
</svg>
