<svg width="27" height="27" viewBox="0 0 27 27" fill="none" xmlns="http://www.w3.org/2000/svg">
<path d="M13.5 3.20625C15.4575 3.20625 17.0438 4.7925 17.0438 6.75C17.0438 8.7075 15.4575 10.2938 13.5 10.2938C11.5425 10.2938 9.95625 8.7075 9.95625 6.75C9.95625 4.7925 11.5425 3.20625 13.5 3.20625ZM13.5 18.3937C18.5119 18.3937 23.7938 20.8575 23.7938 21.9375V23.7938H3.20625V21.9375C3.20625 20.8575 8.48812 18.3937 13.5 18.3937ZM13.5 0C9.77063 0 6.75 3.02062 6.75 6.75C6.75 10.4794 9.77063 13.5 13.5 13.5C17.2294 13.5 20.25 10.4794 20.25 6.75C20.25 3.02062 17.2294 0 13.5 0ZM13.5 15.1875C8.99438 15.1875 0 17.4487 0 21.9375V27H27V21.9375C27 17.4487 18.0056 15.1875 13.5 15.1875Z" fill="#30B856"/>
</svg>
