<svg width="428" height="432" viewBox="0 0 428 432" fill="none" xmlns="http://www.w3.org/2000/svg">
<path fill-rule="evenodd" clip-rule="evenodd" d="M70.6389 294.116L69.7378 302.344L53.1835 313.555C52.4189 314.071 51.4813 314.214 50.3708 313.983C49.3667 313.809 48.4461 313.313 47.7473 312.569C47.3503 312.173 47.2137 312.266 47.3377 312.848C47.6527 315.639 47.8481 317.68 47.9237 318.971C47.9993 320.263 47.1507 322.665 45.3779 326.178C45.2161 326.527 45.3268 326.692 45.7098 326.671C49.6693 326.172 52.2228 326.184 53.3704 326.709C54.518 327.233 56.2761 328.21 58.6448 329.639C58.6995 329.681 58.8045 329.649 58.9599 329.546C59.1154 329.443 59.1825 329.355 59.1636 329.287C58.8113 328.179 58.6424 327.02 58.6637 325.858C58.6847 324.686 59.0775 323.842 59.8421 323.323L78.8793 310.431L82.2485 311.181L81.5343 318.805L60.2014 333.252L58.4725 343.675L73.3213 347.538L73.5881 346.401L70.1096 345.487L70.7922 340.357L87.3191 329.167C89.1214 327.945 90.7312 327.56 92.1483 328.01C93.5641 328.459 94.9007 328.83 96.1582 329.123C96.2485 329.142 96.3242 329.055 96.3851 328.87C96.446 328.685 96.4313 328.565 96.3452 328.516C95.3428 328.089 94.392 327.549 93.5115 326.907C93.217 326.696 92.9983 326.396 92.8878 326.05C92.7773 325.705 92.7809 325.333 92.8982 324.99L94.8979 312.188L81.5574 308.62L83.3345 295.489C78.1924 294.586 74.1125 293.241 71.0947 291.455C67.8977 289.538 64.8975 287.308 62.138 284.799L31.9849 305.576C31.5648 303.732 30.5538 302.103 28.9518 300.688C27.3568 299.278 25.5121 298.181 23.5135 297.453C21.546 296.721 19.4565 296.375 17.3588 296.435C15.2814 296.501 13.5605 297.075 12.1958 298.158C12.0866 298.232 12.1727 298.331 12.4584 298.458C12.7441 298.584 12.9373 298.611 13.0465 298.538C13.8678 298.222 14.7696 298.429 15.752 299.159C16.7745 299.931 17.6728 300.856 18.4155 301.902C19.1661 302.923 19.768 304.047 20.203 305.239C20.6021 306.363 20.6175 307.184 20.2492 307.699C23.4672 307.594 26.0249 307.564 27.9224 307.608C29.6383 307.632 31.3486 307.808 33.033 308.137C34.6349 308.473 36.2081 308.935 37.7382 309.517C39.3682 310.128 41.5304 310.956 44.2247 312.003L70.6389 294.116ZM113.559 345.655L115.107 355.088L104.983 369.569L100.611 370.279L99.3342 365.444L113.559 345.655ZM101.323 374.827L103.306 385.185L118.546 383.653L118.432 382.511L114.834 382.882L113.683 377.814L125.343 361.591C126.616 359.822 128.064 358.702 129.687 358.233C131.106 357.809 132.554 357.487 134.018 357.269C134.111 357.254 134.155 357.144 134.153 356.94C134.15 356.736 134.096 356.632 133.987 356.634C132.832 356.528 131.67 356.527 130.514 356.63C129.586 356.736 128.991 356.123 128.729 354.791L126.114 342.263C122.429 342.582 118.718 342.282 115.132 341.375C112.063 340.595 108.724 339.023 105.115 336.658L86.0043 363.753L87.9871 374.108L104.008 370.982L101.323 374.827ZM157.168 371.13L152.948 382.356L139.868 383.417L137.335 390.16C136.614 392.077 135.664 393.308 134.484 393.851C133.305 394.395 132.145 394.874 131.004 395.29C130.918 395.328 130.909 395.444 130.979 395.633C131.048 395.823 131.126 395.901 131.21 395.863C133.518 395.534 134.949 395.727 135.501 396.442C136.054 397.157 136.857 398.456 137.91 400.339L139.91 404.203L163.476 399.794L163.001 398.06L151.1 400.202L148.004 395.324L152.223 384.096L165.301 383.036L167.837 376.293C168.549 374.395 169.495 373.174 170.675 372.632C171.854 372.089 173.029 371.603 174.199 371.174C174.283 371.136 174.29 371.026 174.216 370.845C174.143 370.664 174.069 370.582 173.991 370.601C171.676 370.951 170.238 370.766 169.675 370.047C169.112 369.328 168.307 368.017 167.259 366.114L165.28 362.291L141.725 366.668L142.17 368.391L154.091 366.291L157.168 371.13ZM195.583 380.371L201.659 387.736L200.189 405.359L196.772 408.182L193.238 404.651L195.583 380.371ZM199.672 411.753L206.587 419.696L218.98 410.672L218.31 409.743L215.389 411.883L211.847 408.085L213.769 388.182C213.979 386.01 214.667 384.311 215.834 383.084C216.847 382.002 217.935 380.993 219.09 380.064C219.161 380.005 219.144 379.887 219.041 379.712C218.938 379.537 218.838 379.476 218.743 379.533C217.692 380.024 216.689 380.61 215.744 381.283C214.994 381.842 214.172 381.612 213.278 380.595L204.724 371.098C201.7 373.233 198.343 374.848 194.791 375.878C191.749 376.756 188.075 377.086 183.769 376.866L180.875 409.926L187.79 417.87L200.057 407.074L199.672 411.753ZM233.672 382.499L236.495 379.497L240.946 382.059L241.88 387.866C242.133 389.434 241.882 390.512 241.131 391.102C240.381 391.692 239.335 392.106 237.992 392.345L235.969 392.64C235.516 392.714 235.304 392.994 235.337 393.478C235.333 393.687 235.397 393.891 235.521 394.059C235.644 394.226 235.82 394.348 236.02 394.405C236.216 394.475 236.424 394.502 236.632 394.486C236.839 394.47 237.04 394.411 237.224 394.312C237.669 394.106 238.066 393.908 238.415 393.718C241.477 392.151 243.606 392.242 244.8 393.99C245.8 395.503 246.604 397.56 247.212 400.162C247.819 402.765 247.927 405.125 247.533 407.242C247.228 408.81 246.406 410.31 245.067 411.742C243.728 413.175 242.41 414.671 241.116 416.231C239.85 417.741 238.839 419.448 238.122 421.285C237.423 423.094 237.539 425.163 238.469 427.491C239.395 429.66 241.236 431.07 243.989 431.721C246.743 432.367 249.127 431.892 251.14 430.297C253.656 428.236 254.279 425.814 253.009 423.029C252.216 421.246 250.755 419.847 248.942 419.134C248.806 419.111 248.667 419.216 248.526 419.452C248.386 419.688 248.373 419.817 248.491 419.844C249.512 419.968 250.168 420.386 250.461 421.097C250.718 421.705 250.931 422.331 251.096 422.97C251.35 424.135 250.996 425.258 250.035 426.341C249.143 427.376 247.986 428.147 246.689 428.571C245.456 428.927 244.458 428.843 243.693 428.319C242.826 427.686 242.082 426.898 241.5 425.995C240.248 424.167 240.76 422.226 243.034 420.173C245.308 418.119 248.46 416.265 252.49 414.609C254.136 413.932 255.642 412.957 256.935 411.732C258.283 410.455 259.257 408.832 259.752 407.04C260.521 404.35 260.478 401.489 259.624 398.456C258.769 395.427 257.106 393.285 254.635 392.031C253.709 391.56 252.732 391.196 251.723 390.946C250.797 390.727 248.865 390.822 245.926 391.23C245.666 391.273 245.598 391.205 245.726 391.028C245.864 390.843 246.048 390.698 246.26 390.607C248.134 390.215 249.465 389.983 250.253 389.912C251.041 389.84 251.854 389.491 252.69 388.865C254.208 387.927 254.772 386.519 254.381 384.639C253.99 382.762 253.704 381.257 253.522 380.125C253.175 377.972 253.506 376.501 254.515 375.714C255.549 374.9 256.498 373.983 257.347 372.977C257.401 372.901 257.351 372.794 257.193 372.651C257.036 372.507 256.92 372.478 256.845 372.558C255.66 373.485 254.684 374.128 253.916 374.488C253.571 374.666 253.181 374.739 252.794 374.697C252.408 374.655 252.042 374.5 251.742 374.252L243.79 369.847L232.901 381.852L233.672 382.499ZM302.208 362.352C301.861 361.638 301.935 360.516 302.428 358.987C302.845 357.621 303.453 356.32 304.233 355.124C304.312 355.088 304.281 354.964 304.138 354.751C304.066 354.605 303.949 354.487 303.804 354.412C301.942 357.288 300.182 358.386 298.525 357.709L290.506 354.595C290.191 354.376 290.01 354.456 289.966 354.84L286.51 365.798C286.479 365.856 286.462 365.921 286.463 365.987C286.465 366.053 286.483 366.118 286.517 366.175C286.584 366.352 286.672 366.426 286.781 366.4C287.948 366.254 289.131 366.488 290.155 367.066C291.268 367.664 292.014 368.385 292.394 369.227L300.571 387.392L297.897 393.899L293.686 392.579L282.576 367.907L272.624 364.435L266.362 378.477L267.436 378.934L269.315 374.999L273.804 377.173L282.824 397.207C283.719 399.195 283.787 400.779 283.028 401.957C282.302 403.07 281.676 404.245 281.156 405.469C281.112 405.587 281.179 405.694 281.358 405.795C281.536 405.896 281.66 405.894 281.734 405.789C282.496 404.645 283.135 403.721 283.649 403.017C284.164 402.312 284.794 402.118 285.538 402.433L294.322 405.635L301.223 388.837L303.394 393.657L313.693 396.935L319.058 382.827L317.983 382.446L316.878 385.374L311.879 383.83L302.208 362.352ZM335.442 369.158C336.07 369.834 336.357 370.741 336.301 371.877C336.286 372.899 335.939 373.889 335.314 374.696C334.986 375.153 335.1 375.273 335.65 375.058C338.352 374.315 340.333 373.805 341.595 373.529C342.856 373.253 345.347 373.712 349.066 374.907C349.436 375.014 349.579 374.879 349.499 374.502C348.392 370.658 348.008 368.126 348.348 366.906C348.686 365.688 349.383 363.804 350.438 361.252C350.488 361.176 350.448 361.069 350.32 360.932C350.192 360.795 350.091 360.749 350.012 360.793C348.974 361.314 347.859 361.661 346.709 361.821C345.554 361.981 344.661 361.722 344.031 361.046L325.818 341.427L314.991 341.6L314.454 356.689L315.617 356.731L315.706 353.624L320.888 353.481L335.442 369.158ZM337.083 353.173C339.827 352.929 342.995 353.042 346.586 353.513C347.05 353.593 347.226 353.426 347.117 353.017C346.668 350.787 346.78 347.61 347.455 343.487C347.566 343.024 347.401 342.847 346.962 342.954C343.483 344.126 340.315 344.013 337.459 342.615C336.969 342.379 336.793 342.546 336.929 343.11C337.735 346.253 337.617 349.563 336.589 352.64C336.451 353.072 336.615 353.25 337.083 353.173ZM340.16 334.901L358.531 354.688L369.044 354.808L370.544 339.495L369.406 339.386L369.044 342.973L363.862 343.117L349.76 327.924C348.545 326.618 347.997 325.316 348.115 324.019C348.23 322.721 348.335 321.426 348.428 320.134C348.43 320.041 348.331 319.985 348.13 319.961C347.928 319.938 347.819 319.965 347.8 320.043C346.355 320.911 345.363 321.371 344.825 321.421C344.27 321.472 343.713 321.496 343.155 321.491L336.392 321.529C335.909 321.558 335.657 321.87 335.636 322.46L334.743 335.08L340.16 334.901ZM399.099 301.666C399.541 297.664 400.642 293.764 402.357 290.124L390.004 283.501C388.067 282.46 386.872 281.301 386.42 280.023C385.968 278.745 385.567 277.475 385.219 276.212C385.191 276.122 385.074 276.096 384.868 276.134C384.662 276.172 384.569 276.237 384.597 276.328C384.727 278.746 384.373 280.356 383.536 281.156C382.699 281.957 381.223 282.727 379.108 283.467L376.291 285.593L375.59 296.161L366.144 291.095L366.083 291.213L365.923 291.089C364.617 292.837 363.416 294.48 362.323 296.018C361.289 297.493 360.047 298.809 358.634 299.924C357.612 300.759 356.532 301.52 355.401 302.201C354.301 302.862 352.817 303.216 350.948 303.263C350.446 303.317 350.337 303.496 350.625 303.8C352.247 306.694 352.897 308.874 352.576 310.339C352.256 311.803 351.432 313.055 350.106 314.092C356.307 314.244 360.121 312.816 361.548 309.808C362.654 307.453 362.029 304.631 359.672 301.343L359.619 301.091L359.97 301.202L384.529 314.375C386.468 315.414 387.494 316.632 387.607 318.03C387.709 319.356 387.927 320.67 388.258 321.958C388.275 322.068 388.386 322.108 388.588 322.078C388.789 322.049 388.888 321.971 388.882 321.842C388.802 320.45 388.75 319.322 388.724 318.459C388.699 317.596 389.077 317.062 389.859 316.856L398.796 314.042C398.537 309.916 398.638 305.774 399.099 301.666ZM383.452 293.406L397.78 301.089L390.18 303.985L376.665 296.739L383.452 293.406ZM54.8555 199.27C52.8642 201.545 51.2566 203.454 50.0327 204.998C48.8534 206.45 48.0374 208.164 47.6527 209.997L43.1639 207.886L45.3884 191.874L62.1632 190.008L70.1767 182.363C70.1725 182.224 70.1705 182.074 70.1705 181.912C70.1704 181.752 70.181 181.592 70.202 181.434C68.444 178.968 66.4295 176.697 64.1924 174.659C61.9452 172.607 59.9093 170.334 58.1155 167.874L57.3172 168.66L59.8653 172.121C60.195 172.559 60.0697 173.255 59.4893 174.208C59.2039 174.68 58.8244 175.087 58.3747 175.404C57.925 175.721 57.4149 175.942 56.8762 176.052C56.2783 176.222 55.6512 176.264 55.0361 176.174C54.4456 176.087 53.8467 176.073 53.2528 176.132L19.3187 180.122C16.7287 180.45 14.4469 180.241 12.4731 179.494C10.4907 178.742 8.54799 177.889 6.6525 176.939C6.56203 176.904 6.46367 176.897 6.36911 176.917C6.27455 176.937 6.18773 176.984 6.11895 177.052C5.93831 177.2 5.93415 177.309 6.10849 177.379C6.9193 177.814 7.89112 178.416 9.024 179.184C10.2134 179.981 11.5014 180.619 12.8553 181.082C9.45246 182.125 6.84786 183.699 5.04141 185.805C3.32406 187.758 2.00839 190.031 1.17009 192.495C0.422949 194.688 0.0280603 196.985 0.000132303 199.302C-0.00406876 201.488 0.0917775 203.193 0.287827 204.414C0.907484 208.044 2.56133 210.674 5.24931 212.303C7.93728 213.933 10.4657 214.557 12.8344 214.174C14.8026 213.875 16.3738 213.093 17.548 211.829C18.6839 210.643 19.4181 209.127 19.6464 207.498C19.9866 205.04 19.2941 202.839 17.5689 200.894C17.4324 200.736 16.8568 200.323 15.8486 199.653C14.8403 198.984 13.5044 198.531 11.8387 198.299C11.7964 198.285 11.7516 198.281 11.7074 198.285C11.6632 198.29 11.6204 198.304 11.5819 198.326C11.5433 198.348 11.5098 198.378 11.4835 198.414C11.4572 198.45 11.4386 198.491 11.4291 198.535C11.3786 198.725 11.4648 198.845 11.6874 198.899C13.4834 199.519 14.6177 200.476 15.0903 201.773C15.5615 203.041 15.6975 204.409 15.4852 205.746C15.3284 206.919 15.0066 208.065 14.5295 209.148C14.0591 210.203 13.2622 211.079 12.2568 211.644C10.9775 212.431 9.53374 212.585 7.92543 212.107C6.35512 211.657 4.97627 210.7 4.0016 209.386C3.4816 208.698 3.06606 207.936 2.76857 207.125C2.46819 206.312 2.36532 205.234 2.45985 203.89C2.62369 201.729 3.67395 199.868 5.61064 198.31C7.54733 196.751 9.47141 195.863 11.3829 195.647L12.6789 195.483L47.428 211.863C47.4301 213.14 47.541 214.414 47.7598 215.672C48.474 219.453 51.1467 222.673 55.7776 225.333C60.4086 227.992 64.9373 228.665 69.3638 227.353C72.2121 226.508 74.5382 224.831 76.3418 222.322C78.1483 219.813 79.3281 217.229 79.8812 214.568C80.629 210.671 79.4478 206.992 76.3376 203.532C73.2274 200.071 69.5312 198.318 65.2489 198.272L65.1984 199.129C66.8038 199.237 68.3751 199.643 69.8322 200.328C71.3068 201.016 72.3564 201.922 72.981 203.045C73.8309 204.666 74.232 206.486 74.1425 208.316C74.0786 210.255 73.9132 212.191 73.6468 214.113C73.3345 216.458 72.8115 218.77 72.084 221.02C71.3909 223.121 70.3889 224.597 69.0782 225.448C67.3368 226.586 65.2328 226.746 62.7661 225.929C60.2994 225.111 59.1224 223.469 59.2351 221.001C59.3611 218.604 59.8358 216.548 60.6592 214.833C61.4826 213.119 63.4369 211.315 66.5218 209.424L52.8894 195.097L51.5283 195.975L54.8555 199.27ZM33.5371 203.367L16.0313 195.122L34.976 193.007L33.5371 203.367ZM63.5747 156.225C64.4128 156.68 64.9828 157.476 65.2846 158.613C65.5864 159.751 65.5703 160.773 65.2363 161.678C65.0542 162.254 65.2041 162.335 65.6858 161.923C68.0972 160.335 69.8715 159.194 71.0085 158.502C72.1449 157.813 74.7377 157.43 78.7869 157.352C79.235 157.337 79.3266 157.166 79.0619 156.84C76.7472 153.429 75.5562 151.069 75.489 149.76C75.4218 148.454 75.4763 146.371 75.6528 143.512C75.6675 143.44 75.5877 143.358 75.4176 143.265C75.2475 143.172 75.1382 143.151 75.0857 143.202C74.2396 144.055 73.2596 144.763 72.1849 145.298C71.1052 145.837 70.1459 145.879 69.3071 145.422L51.2762 135.604L49.4067 128.597L53.7148 127.015L78.2155 140.356L88.6068 136.992L85.0128 121.498L83.8596 121.766L84.683 125.404L79.6648 127.222L61.575 117.369C59.5963 116.293 58.4705 114.993 58.1975 113.47C57.9244 111.947 57.6212 110.538 57.2879 109.242C57.2606 109.149 57.145 109.124 56.9392 109.168C56.7333 109.213 56.6367 109.276 56.643 109.358C56.7165 110.797 56.6766 111.924 56.5233 112.733C56.4671 113.108 56.2941 113.456 56.0289 113.728C55.7638 113.999 55.42 114.179 55.0467 114.243L45.0208 116.64L49.8078 134.805L45.0166 132.195L34.4593 135.936L38.881 150.906L40.0195 150.592L39.1015 147.487L44.1364 145.639L63.5747 156.225ZM89.9049 109.577C90.5162 110.312 90.7598 111.265 90.6359 112.436C90.5614 113.489 90.1479 114.49 89.4575 115.288C89.1824 115.635 89.2908 115.767 89.7831 115.682C92.6146 115.067 94.6529 114.61 95.8978 114.313C97.1427 114.015 99.6591 114.598 103.447 116.061C103.777 116.139 103.934 116.008 103.918 115.667C102.995 111.635 102.615 109.173 102.777 108.281C102.939 107.39 103.637 105.658 104.871 103.087C105.115 102.526 104.969 102.351 104.434 102.56C102.25 103.525 100.648 103.394 99.6304 102.168L85.6114 85.2778L86.1638 79.213L91.5434 79.3899L105.674 96.4131C106.285 97.1499 106.647 98.0624 106.707 99.0189C106.754 99.4904 106.699 99.9664 106.547 100.415C106.396 100.864 106.15 101.275 105.827 101.62C105.554 101.968 105.663 102.099 106.155 102.014C108.986 101.401 110.96 101.073 112.076 101.029C113.192 100.984 115.637 101.686 119.411 103.133C119.774 103.215 119.932 103.085 119.882 102.739C118.959 98.7071 118.679 96.1617 119.041 95.1028C119.403 94.0439 120.202 92.2281 121.438 89.6553C121.453 89.5893 121.449 89.5204 121.428 89.4564C121.406 89.3924 121.366 89.3357 121.314 89.2929C121.19 89.1433 121.087 89.0907 121.003 89.1307C118.721 90.797 116.715 90.5884 114.985 88.505L101.859 72.6911L102.71 65.4887L107.295 65.6173L125.154 87.1315L136.026 87.8394L137.868 72.1603L136.673 72.0002L136.186 76.0089L131.739 75.9415L118.155 59.5757C116.716 57.842 116.052 56.0984 116.164 54.3451C116.275 52.5917 116.416 51.0518 116.586 49.7254C116.594 49.6285 116.496 49.5547 116.292 49.5042C116.088 49.4536 115.97 49.4831 115.943 49.5926C115.481 50.9577 115.132 52.0946 114.895 53.0032C114.658 53.9118 114.117 54.3191 113.271 54.225L102.445 53.2581L100.748 71.3513L97.3241 67.2267L86.1345 66.7843L84.5423 83.9907L81.5553 80.3927L70.9686 79.4447L69.5508 94.9932L70.7291 95.0775L71.2858 91.9008L75.5793 92.3179L89.9049 109.577ZM170.681 37.2777L156.158 25.9781C154.228 28.9852 151.574 31.4563 148.44 33.1636C145.015 35.0313 141.483 36.6976 137.864 38.154L147.955 66.0786C148.676 68.0693 148.759 69.6204 148.205 70.732C147.643 71.8667 147.219 73.0647 146.941 74.3005C146.907 74.4079 146.979 74.5217 147.153 74.6397C147.327 74.7576 147.434 74.7618 147.466 74.6544C148.335 72.4467 149.706 71.3064 151.577 71.2333C153.447 71.1603 154.806 71.2235 155.652 71.423L167.368 74.2542L173.531 53.692L172.428 53.1485L169.397 62.211L158.88 59.4893L156.54 53.2159L170.681 37.2777ZM155.95 51.6845L149.812 35.3018L161.59 45.527L155.95 51.6845ZM186.242 55.3057C186.315 56.2599 185.965 57.1791 185.191 58.0631C184.418 58.9472 183.561 59.4942 182.62 59.7041C182.196 59.8284 182.211 59.9991 182.66 60.2161C185.28 61.3578 187.193 62.2243 188.401 62.8155C189.609 63.4068 191.336 65.3849 193.583 68.7497C193.833 69.0278 194.037 69.0109 194.194 68.7034C195.763 64.8757 197.076 62.5782 198.133 61.8107C199.189 61.0432 200.963 59.9668 203.453 58.5814C203.493 58.5297 203.522 58.4702 203.538 58.4067C203.553 58.3432 203.555 58.2771 203.544 58.2127C203.54 58.0189 203.491 57.9136 203.401 57.8988C202.223 57.6734 201.095 57.2397 200.069 56.618C199.03 55.9924 198.472 55.2017 198.397 54.2461L197.555 43.4794L201.974 43.1655C203.132 43.0981 204.171 43.5651 205.092 44.5664C206.012 45.5677 206.533 46.8296 206.652 48.3519L207.486 59.0174L215.954 65.8595L226.956 54.4356L226.105 53.6099L223.511 56.2831L219.735 53.0137C219.43 51.735 219.254 50.0575 219.205 47.9811C219.157 45.9048 218.408 44.341 216.958 43.2898C215.512 42.285 211.792 41.9149 205.795 42.1797C205.545 42.1986 205.434 42.1628 205.461 42.068C205.489 41.9732 205.613 41.8974 205.835 41.8342C207.887 41.2612 209.788 40.7858 211.536 40.4081C213.285 40.0303 214.581 39.557 215.424 38.9882C217.392 37.6464 218.257 36.2413 218.018 34.773C217.777 33.3069 217.61 31.9825 217.518 30.8C217.344 28.553 217.819 26.8987 218.943 25.8369C220.069 24.7773 221.082 23.755 221.984 22.7698C222.047 22.6961 222.009 22.5865 221.873 22.437C221.736 22.2874 221.625 22.239 221.537 22.2916C220.642 22.9774 219.673 23.5597 218.648 24.0274C218.309 24.186 217.928 24.2304 217.562 24.1541C217.195 24.0778 216.863 23.8849 216.615 23.604L209.119 16.4796L196.532 30.3956L194.154 0L182.217 3.85291L186.242 55.3057ZM201.506 26.6775L205.174 29.4413L205.617 35.0974C205.748 36.6862 205.415 38.2789 204.659 39.6813C203.894 41.1243 202.867 41.9079 201.578 42.0322L197.475 42.4577L196.662 32.064L201.506 26.6775ZM253.933 29.7194L259.235 38.0508L255.49 55.9482L251.625 58.4107L248.447 54.3345L253.933 29.7194ZM254.147 62.4427L260.235 71.4777L274.1 63.7993L273.529 62.7608L270.259 64.583L267.108 60.235L271.605 40.0541C272.097 37.8528 273.019 36.1978 274.371 35.089C275.547 34.1057 276.792 33.2081 278.096 32.4031C278.176 32.3526 278.173 32.2283 278.089 32.0345C278.005 31.8407 277.911 31.7669 277.808 31.8133C276.667 32.1837 275.562 32.6568 274.506 33.2268C273.668 33.705 272.853 33.3651 272.063 32.2072L264.491 21.3689C261.117 23.1743 257.468 24.4038 253.692 25.007C250.457 25.5189 246.645 25.3876 242.254 24.6131L235.089 58.1706L241.177 67.2056L255.137 57.6903L254.147 62.4427ZM288.17 62.9904C286.019 62.3079 284.058 62.338 282.286 63.081C280.515 63.8239 278.743 65.6552 276.972 68.5749C276.869 68.7539 276.921 68.914 277.127 69.0594C277.162 69.0941 277.203 69.1212 277.249 69.1393C277.294 69.1573 277.343 69.1657 277.392 69.1642C277.44 69.1626 277.488 69.151 277.532 69.1301C277.577 69.1091 277.616 69.0794 277.648 69.0425C278.795 67.6269 279.758 66.8798 280.537 66.8012C281.816 66.6685 283.203 67.4254 284.698 69.072L272.052 91.2331L284.809 93.5123L291.581 81.6461C292.178 83.1713 292.698 84.6908 293.142 86.2047C294.632 84.9924 296.333 84.0662 298.158 83.4725C300.013 82.8566 301.94 82.4862 303.89 82.3708C307.915 82.1074 311.329 82.7541 314.132 84.3109L326.761 62.1814C327.878 60.2223 329.109 59.1101 330.451 58.8447C331.794 58.5793 333.116 58.2942 334.415 57.9894C334.508 57.9641 334.537 57.842 334.503 57.6271C334.47 57.4122 334.407 57.3153 334.312 57.3406C333.083 57.3626 331.857 57.4753 330.645 57.6776C329.639 57.8602 329.047 57.533 328.87 56.696L326.435 48.0928L308.205 52.5166L310.912 47.7684L307.436 37.0713L292.415 41.1685L292.701 42.3187L295.818 41.4677L297.53 46.5866L288.17 62.9904ZM301.502 75.2717C301.107 74.0654 300.564 72.9134 299.884 71.8422C299.42 71.1209 298.908 70.4319 298.351 69.7798L307.392 53.9406L314.447 52.2406L315.899 56.578L302.949 79.272C302.434 77.9259 301.952 76.5925 301.502 75.2717ZM324.12 92.8614C322.642 94.3739 321.28 95.1168 320.035 95.0901C318.775 95.0633 317.516 95.2014 316.292 95.501C316.178 95.5199 316.111 95.6358 316.09 95.8549C316.069 96.0739 316.113 96.1729 316.224 96.154C318.569 95.9714 320.342 96.1835 321.545 96.7901C322.748 97.3968 323.443 98.1271 323.629 98.9809L325.977 109.712L345.811 109.489L345.846 108.279L337.436 108.34L336.131 98.4923L353.851 79.9187C352.742 83.1066 352.772 85.6886 353.942 87.6645C355.111 89.6405 356.701 90.7886 358.712 91.1088C361.64 91.5954 364.957 89.8947 368.662 86.0067C368.759 85.9077 368.683 85.7729 368.442 85.598C368.2 85.4232 368.03 85.3831 367.933 85.4821C366.307 86.7861 365.238 87.4412 364.724 87.4475C363.552 87.4756 362.985 86.6154 363.024 84.867C363.063 83.1185 363.62 81.3364 364.692 79.5206C361.245 79.0765 357.851 78.2889 354.559 77.1697C351.406 76.0806 348.274 74.1341 345.161 71.3303L324.12 92.8614ZM350.209 116.697C349.39 117.19 348.413 117.286 347.279 116.984C346.144 116.682 345.274 116.155 344.668 115.404C344.367 115.079 344.223 115.168 344.229 115.667C344.376 118.528 344.454 120.632 344.464 121.98C344.474 123.329 343.476 125.76 341.471 129.275C341.334 129.623 341.439 129.8 341.788 129.804C345.901 129.509 348.536 129.666 349.694 130.274C350.852 130.882 352.603 131.995 354.946 133.613C355.01 133.626 355.076 133.626 355.139 133.611C355.203 133.597 355.263 133.57 355.315 133.531C355.486 133.442 355.559 133.352 355.532 133.261C355.209 132.104 355.093 130.898 355.191 129.701C355.288 128.488 355.746 127.635 356.565 127.144L365.805 121.593L368.051 125.423C368.627 126.432 368.673 127.573 368.19 128.846C367.707 130.119 366.811 131.148 365.503 131.934L356.353 137.43L354.011 148.079L369.112 152.873L369.469 151.742L365.927 150.602L367.164 145.757C368.171 144.912 369.59 144.007 371.422 143.04C373.255 142.073 374.317 140.704 374.611 138.934C374.865 137.188 373.539 133.681 370.633 128.414C370.504 128.199 370.488 128.083 370.584 128.066C370.681 128.049 370.805 128.125 370.96 128.298C372.384 129.884 373.654 131.378 374.77 132.781C375.887 134.183 376.886 135.137 377.77 135.641C379.845 136.811 381.484 136.962 382.687 136.094C383.89 135.227 384.999 134.488 386.013 133.878C387.941 132.72 389.629 132.409 391.077 132.947C392.525 133.485 393.889 133.941 395.171 134.314C395.263 134.337 395.347 134.253 395.419 134.064C395.49 133.874 395.484 133.752 395.4 133.697C394.388 133.2 393.436 132.589 392.562 131.875C392.27 131.641 392.061 131.318 391.966 130.956C391.871 130.593 391.895 130.209 392.035 129.861L395.06 119.958L377.033 114.85L403.113 99.1853L394.358 90.1798L350.209 116.697ZM382.566 117.662L381.732 122.187L376.877 125.102C375.517 125.926 373.947 126.336 372.359 126.282C370.729 126.238 369.572 125.664 368.889 124.561L366.681 121.066L375.6 115.709L382.566 117.662ZM397.618 165.641C399.765 164.961 401.481 165.057 402.766 165.93C404.054 166.8 405.278 167.566 406.438 168.226C406.524 168.27 406.621 168.203 406.732 168.023C406.843 167.844 406.867 167.731 406.801 167.68C405.718 166.732 404.938 165.921 404.464 165.247C403.989 164.573 403.97 163.869 404.407 163.134L409.637 154.202L394.847 146.842L394.247 147.891L397.196 149.538L395.608 153.124L369.58 161.721L364.768 171.525L378.392 179.721L379.001 178.704L375.819 176.772L377.988 171.855L397.618 165.641ZM415.592 143.714C414.723 147.239 412.95 150.656 410.276 153.964C409.851 154.432 409.937 154.703 410.532 154.777C413.459 155.142 416.865 156.919 420.751 160.109C421.184 160.499 421.465 160.408 421.598 159.842C422.444 154.963 424.216 151.547 426.912 149.593C427.532 149.134 427.446 148.862 426.656 148.778C422.518 148.272 419.111 146.495 416.437 143.446C416 142.964 415.716 143.054 415.592 143.714ZM408.959 221.362C409.774 221.263 410.829 221.73 412.124 222.762C413.293 223.663 414.329 224.725 415.199 225.918C415.206 226.009 415.338 226.028 415.596 225.977C415.855 225.927 416.004 225.853 416.044 225.76C413.945 222.906 413.523 220.799 414.777 219.438L420.695 212.779C421.022 212.554 421.007 212.348 420.655 212.167L411.328 204.834C411.284 204.782 411.227 204.742 411.163 204.719C411.099 204.696 411.03 204.691 410.963 204.703C410.767 204.703 410.664 204.762 410.65 204.878C410.367 206.064 409.712 207.127 408.78 207.911C407.801 208.775 406.836 209.238 405.884 209.302L385.376 210.65L380.068 205.722L382.868 202.08L410.721 200.248L417.686 191.844L406.402 180.667L405.571 181.543L408.688 184.798L404.959 188.364L382.343 189.852C380.1 189.999 378.547 189.49 377.684 188.324C376.872 187.216 375.964 186.182 374.972 185.232C374.875 185.148 374.745 185.173 374.584 185.31C374.422 185.447 374.378 185.567 374.453 185.679C375.283 186.856 375.944 187.817 376.436 188.562C376.928 189.307 376.887 189.984 376.312 190.591L370.032 197.956L383.744 210.757L378.302 211.113L371.399 219.925L383.072 230.255L383.832 229.35L381.404 227.214L384.712 222.954L408.959 221.362ZM417.646 201.952C418.035 205.282 420.963 208.172 426.429 210.622C426.487 210.617 426.544 210.597 426.592 210.564C426.641 210.531 426.68 210.486 426.706 210.433C426.822 210.287 426.845 210.195 426.773 210.155C424.02 208.781 423.018 207.214 423.768 205.453C424.517 203.692 425.928 202.983 428 203.325L422.66 194.771C418.93 196.226 417.259 198.62 417.646 201.952ZM252.822 99.4802H174.472C174.472 99.4802 169.221 100.409 169.221 104.536V178.266H97.1728C97.1728 178.266 90.6611 178.805 90.6611 184.585V261.264C90.6611 261.264 91.3564 266.952 96.3326 266.952H169.221V340.681C169.221 340.681 169.41 345.737 176.783 345.737H252.612C252.612 345.737 257.653 344.052 257.653 338.364V267.162H330.962C330.962 267.162 336.213 264.993 336.213 260.421V183.532C336.213 183.532 334.176 178.266 330.542 178.266H257.653V105.379C257.653 105.379 257.286 102.693 255.763 101.165C254.24 99.6382 252.822 99.4802 252.822 99.4802ZM202.409 183.532C202.409 183.532 202.201 182.378 203.88 179.319C205.558 176.26 205.98 175.948 205.98 175.948C205.98 175.948 214.355 175.594 218.793 171.946C223.232 168.297 226.139 166.081 234.127 169.207C242.116 172.334 247.369 182.795 242.95 190.484C238.53 198.173 236.858 197.857 236.858 197.857C236.858 197.857 232.17 196.603 225.305 196.171C218.441 195.74 217.533 195.75 217.533 195.75C217.533 195.75 217.388 193.469 216.273 192.38C215.157 191.29 214.529 190.987 214.382 190.484C214.235 189.98 214.538 189.805 215.433 188.377C216.327 186.949 215.951 183.812 214.802 182.057C213.653 180.303 213.784 178.266 213.332 178.266C212.88 178.266 213.023 179.89 212.702 180.583C212.381 181.276 210.396 183.684 210.391 185.428C210.387 187.172 210.795 188.162 211.442 189.009C212.089 189.856 212.624 190.086 212.072 190.694C211.519 191.303 210.177 191.988 209.551 193.433C208.925 194.878 208.921 195.539 208.921 195.539C208.921 195.539 194.459 195.994 185.815 198.699C177.171 201.404 173.741 201.743 172.792 201.438C171.842 201.132 168.374 198.967 166.91 201.648C165.446 204.33 167.751 205.44 167.751 205.44L144.225 246.518C144.225 246.518 141.351 246.145 141.914 248.203C142.477 250.262 145.275 250.31 145.275 250.31C145.275 250.31 157.416 255.833 170.061 255.366C182.706 254.898 195.057 250.099 195.057 250.099C195.057 250.099 198.101 250.512 197.998 248.414C197.895 246.316 195.688 246.729 195.688 246.729L171.952 205.44C171.952 205.44 184.557 203.022 187.706 202.07C190.854 201.118 200.933 200.431 204.51 200.806C208.087 201.181 209.131 201.227 209.131 201.227C209.131 201.227 208.377 207.307 209.341 209.021C210.305 210.736 211.377 211.682 211.442 212.181C211.507 212.68 210.895 213.218 211.022 214.498C211.148 215.779 211.442 224.189 211.442 224.189C211.442 224.189 203.189 221.366 203.67 219.976C204.151 218.585 207.871 217.448 207.871 217.448L207.661 210.917C207.661 210.917 197.355 214.572 196.738 218.501C196.12 222.43 198.385 225.158 204.09 227.77C209.795 230.382 211.442 231.351 211.442 231.351C211.442 231.351 210.984 245.1 210.811 246.939C210.639 248.779 210.601 249.257 210.601 249.257C210.601 249.257 206.484 248.72 206.4 247.571C206.316 246.423 208.501 246.308 208.501 246.308L208.291 240.62C208.291 240.62 199.37 243.533 199.259 247.782C199.147 252.031 205.228 253.466 207.031 253.891C208.833 254.317 210.181 254.523 210.181 254.523C210.181 254.523 209.263 260.586 209.761 262.528C210.122 263.839 210.615 265.109 211.232 266.32C211.232 266.32 208.373 270.845 208.291 274.535C208.209 278.226 208.056 281.064 205.35 281.276C202.645 281.489 200.767 282.245 198.838 283.172C196.91 284.099 194.06 283.183 192.957 284.436C191.854 285.69 191.907 287.807 191.907 287.807H234.758C234.758 287.807 235.115 285.102 234.127 284.436C233.14 283.771 229.552 284.023 228.036 283.383C226.519 282.743 225.112 281.571 223.625 281.487C222.138 281.403 219.644 281.426 218.793 279.591C217.943 277.756 218.651 272.307 217.323 270.112C215.996 267.917 215.223 266.32 215.223 266.32C215.223 266.32 216.716 263.885 216.903 262.528C217.09 261.171 216.483 255.787 216.483 255.787C216.483 255.787 223.011 257.112 225.305 258.736C227.599 260.36 230.517 264.011 230.556 263.792C230.596 263.573 229.618 258.888 227.196 257.051C224.774 255.214 216.063 250.942 216.063 250.942L215.013 232.826C215.013 232.826 219.632 233.95 219.634 234.721C219.636 235.492 218.163 236.407 218.163 236.407V242.305C218.163 242.305 229.103 238.798 226.986 234.089C224.868 229.381 215.013 225.874 215.013 225.874L215.643 214.498C215.634 214.138 215.563 213.782 215.433 213.445C215.307 213.157 215.167 212.876 215.013 212.603C215.013 212.603 217.019 209.523 217.113 209.021C217.208 208.52 217.783 206.782 217.743 205.44C217.703 204.098 217.533 201.016 217.533 201.016C217.533 201.016 227.189 200.692 229.296 200.806C231.403 200.92 232.237 201.227 232.237 201.227C232.237 201.227 226.958 204.779 224.255 205.862C221.551 206.944 219.004 207.757 219.004 207.757L219.424 215.973C219.424 215.973 234.237 207.696 237.488 205.44C240.74 203.184 241.479 202.702 241.479 202.702C241.479 202.702 252.469 204.935 253.452 205.019C254.435 205.103 254.503 205.651 254.503 205.651L230.977 246.729C230.977 246.729 228.626 246.227 228.666 248.203C228.706 250.179 231.397 250.099 231.397 250.099C231.397 250.099 244.626 255.452 257.023 255.576C269.421 255.701 280.969 250.31 280.969 250.31C280.969 250.31 284.885 250.58 284.75 248.414C284.616 246.249 282.23 246.308 282.23 246.308L258.494 205.44C258.494 205.44 260.338 205.013 260.384 203.334C260.43 201.655 259.111 200.315 257.863 200.384C256.616 200.454 254.555 201.347 253.662 201.438C252.77 201.528 244.84 199.753 244.84 199.753C244.84 199.753 253.356 193.639 252.192 179.74C251.028 165.841 237.929 157.406 225.305 157.2C212.681 156.994 206.816 162.932 205.14 168.575C203.464 174.219 205.199 174.558 204.3 175.738C203.401 176.917 201.672 178.946 200.939 179.319C200.206 179.692 199.59 179.544 199.679 179.74C199.767 179.936 201.004 180.235 201.569 179.951C202.134 179.666 203.04 178.687 203.04 178.687C203.04 178.687 202.014 180.322 201.989 181.425C201.991 182.148 202.133 182.864 202.409 183.532ZM209.761 168.997C209.761 168.997 210.036 166.382 211.442 166.68C212.847 166.977 212.826 168.337 211.652 168.786C210.477 169.235 209.761 168.997 209.761 168.997ZM146.955 246.518H192.957L169.851 206.915L146.955 246.518ZM256.603 206.915L279.499 246.518H233.497L256.603 206.915Z" fill="#144F24"/>
</svg>
